<?xml version="1.0" encoding="UTF-8"?>
<svg id="Layer_2" data-name="Layer 2" xmlns="http://www.w3.org/2000/svg" xmlns:xlink="http://www.w3.org/1999/xlink" viewBox="0 0 486.1007 152.1707">
  <defs>
    <style>
      .cls-1 {
        fill: url(#New_Gradient_Swatch_5);
      }

      .cls-2 {
        fill: url(#New_Gradient_Swatch_5-2);
      }
    </style>
    <linearGradient id="New_Gradient_Swatch_5" data-name="New Gradient Swatch 5" x1="0" y1="76.0854" x2="188.6086" y2="76.0854" gradientUnits="userSpaceOnUse">
      <stop offset="0" stop-color="#e7efc7"/>
      <stop offset="1" stop-color="#fff"/>
    </linearGradient>
    <linearGradient id="New_Gradient_Swatch_5-2" data-name="New Gradient Swatch 5" x1="240.2754" y1="76.0854" x2="486.1007" y2="76.0854" xlink:href="#New_Gradient_Swatch_5"/>
  </defs>
  <g id="Layer_1-2" data-name="Layer 1">
    <g>
      <path class="cls-1" d="m174.858,152.1707h0c-7.5943,0-13.7506-6.1564-13.7506-13.7506V41.4281c0-7.5943,6.1564-13.7506,13.7506-13.7506h0c7.5943,0,13.7506,6.1564,13.7506,13.7506v96.992c0,7.5943-6.1564,13.7506-13.7506,13.7506ZM146.6331,13.9102h0c0-7.5943-6.1564-13.7506-13.7506-13.7506h0c-7.5943,0-13.7506,6.1564-13.7506,13.7506h0c0,7.5943,6.1564,13.7506,13.7506,13.7506h0c7.5943,0,13.7506-6.1564,13.7506-13.7506Zm0,96.2234v-63.5148c0-7.5943-6.1564-13.7506-13.7506-13.7506h0c-7.5943,0-13.7506,6.1564-13.7506,13.7506v63.5148c0,7.5943,6.1564,13.7506,13.7506,13.7506h0c7.5943,0,13.7506-6.1564,13.7506-13.7506Zm0-96.2234h0c0-7.5943-6.1564-13.7506-13.7506-13.7506h0c-7.5943,0-13.7506,6.1564-13.7506,13.7506h0c0,7.5943,6.1564,13.7506,13.7506,13.7506h0c7.5943,0,13.7506-6.1564,13.7506-13.7506Zm0,96.2234v-63.5148c0-7.5943-6.1564-13.7506-13.7506-13.7506h0c-7.5943,0-13.7506,6.1564-13.7506,13.7506v63.5148c0,7.5943,6.1564,13.7506,13.7506,13.7506h0c7.5943,0,13.7506-6.1564,13.7506-13.7506Zm-39.0736,28.2864v-70.2726c0-7.5943-6.1564-13.7506-13.7506-13.7506h0c-7.5943,0-13.7506,6.1564-13.7506,13.7506v70.2726c0,7.5943,6.1564,13.7506,13.7506,13.7506h0c7.5943,0,13.7506-6.1564,13.7506-13.7506ZM68.4858,13.7506h0c0-7.5943-6.1564-13.7506-13.7506-13.7506h0c-7.5943,0-13.7506,6.1564-13.7506,13.7506h0c0,7.5943,6.1564,13.7506,13.7506,13.7506h0c7.5943,0,13.7506-6.1564,13.7506-13.7506Zm0,96.2234v-63.5148c0-7.5943-6.1564-13.7506-13.7506-13.7506h0c-7.5943,0-13.7506,6.1564-13.7506,13.7506v63.5148c0,7.5943,6.1564,13.7506,13.7506,13.7506h0c7.5943,0,13.7506-6.1564,13.7506-13.7506Zm-40.9846,28.446V41.2519c0-7.5943-6.1564-13.7506-13.7506-13.7506h0C6.1564,27.5013,0,33.6576,0,41.2519v97.1682c0,7.5943,6.1564,13.7506,13.7506,13.7506h0c7.5943,0,13.7506-6.1564,13.7506-13.7506Z"/>
      <path class="cls-2" d="m416.44,118.032c-3.3607,0-6.0851-2.7244-6.0851-6.0851s2.7244-6.0851,6.0851-6.0851,6.0851,2.7244,6.0851,6.0851-2.7244,6.0851-6.0851,6.0851Zm-128.3993-58.7376c4.2934,0,7.7738-3.4805,7.7738-7.7738V13.9437c0-2.4711-2.0032-4.4743-4.4743-4.4743h-1.8175c-1.469,0-2.8444.7211-3.68,1.9293l-17.8409,25.7965-17.8409-25.7965c-.8356-1.2082-2.211-1.9293-3.68-1.9293h-1.7311c-2.4711,0-4.4743,2.0032-4.4743,4.4743v49.666c0,1.8219,1.477,3.2989,3.2989,3.2989h0c2.4711,0,4.4743-2.0032,4.4743-4.4743V21.9065s17.0165,24.704,17.0165,24.704h5.8731l17.1023-24.704v37.3879h0Zm47.8517,4.3153h0c0-2.4711-2.0032-4.4744-4.4743-4.4744h-19.4518s0-17.3626,0-17.3626h13.458c1.4403,0,2.608-1.1676,2.608-2.608h0c0-2.4711-2.0032-4.4744-4.4743-4.4744h-11.5916s0-17.4478,0-17.4478h23.9261c0-4.2931-3.4802-7.7733-7.7733-7.7733h-23.667v57.4393h28.1414c1.8219,0,3.2989-1.477,3.2989-3.2989Zm40.0772,0h0c0-2.4711-2.0032-4.4744-4.4743-4.4744h-19.4518s0-17.3626,0-17.3626h13.458c1.4403,0,2.608-1.1676,2.608-2.608h0c0-2.4711-2.0032-4.4744-4.4743-4.4744h-11.5916s0-17.4478,0-17.4478h23.9261c0-4.2931-3.4802-7.7733-7.7733-7.7733h-23.667v57.4393h28.1414c1.8219,0,3.2989-1.477,3.2989-3.2989Zm43.1877-46.7989v-2.8671c0-2.4711-2.0032-4.4743-4.4743-4.4743h-26.4657c-2.4711,0-4.4743,2.0032-4.4743,4.4743v2.8671h13.9067v50.0979h0c4.198,0,7.6011-3.4031,7.6011-7.6011V16.8107h13.9067Zm-131.116,118.2765c4.2931,0,7.7733-3.4802,7.7733-7.7733v-37.5775c0-2.4711-2.0032-4.4743-4.4743-4.4743h-4.1626l-19.1764,27.7258-19.1746-27.7258h-4.0768c-2.4711,0-4.4743,2.0032-4.4743,4.4743v48.4906c0,2.4711,2.0032,4.4743,4.4743,4.4743h0c1.8219,0,3.2989-1.477,3.2989-3.2989v-41.7031s15.6823,22.7678,15.6823,22.7678c.835,1.2123,2.2128,1.9363,3.6848,1.9363h1.1777c1.4682,0,2.843-.7203,3.6787-1.9274l15.7691-22.7766v37.3879h0Zm64.0897,7.6142l-17.1143-49.1944c-1.6994-4.8847-6.3045-8.1585-11.4764-8.1585h0l-19.9525,57.3529h8.2063l7.0823-20.2117h17.966l7.0835,20.2117h8.2051Zm-17.7933-27.4679h-13.043l6.5652-18.7434,6.4777,18.7434Zm54.072-22.63v-2.8671c0-2.4711-2.0032-4.4743-4.4743-4.4743h-26.4652c-2.4711,0-4.4743,2.0032-4.4743,4.4743v2.8671h13.9067v50.0979h0c4.1983,0,7.6017-3.4034,7.6017-7.6017v-42.4962s13.9055,0,13.9055,0Zm40.1175,46.8228c3.9635-1.7147,7.3365-4.1765,10.1198-7.3894,2.7827-3.2114,4.8812-7.0993,6.2942-11.6643h0c-3.8015-1.167-7.9751.2975-10.0698,3.6776-2.2964,3.7056-5.4513,6.4263-9.4648,8.1626-2.5905,1.1207-5.2788,1.6877-8.0643,1.6995-2.7866.0148-5.4673-.488-8.0408-1.509-2.5736-1.0184-4.8727-2.4868-6.8936-4.4056-2.0221-1.9158-3.6035-4.1965-4.7471-6.8399-1.1431-2.6423-1.7222-5.3555-1.7349-8.1431-.0139-2.7845.49-5.4656,1.509-8.0408,1.0189-2.5726,2.4877-4.8706,4.4056-6.8936,1.9167-2.0199,4.1701-3.5921,6.7607-4.7128,5.9188-2.5606,12.1199-2.2934,18.603.7979h0c1.9748-4.0233-.3419-8.8904-4.7333-9.7857-1.5432-.3146-3.0884-.501-4.6356-.5592-4.2734-.1588-8.3913.6188-12.3547,2.3335-3.5946,1.5551-6.706,3.7167-9.3352,6.4853-2.6287,2.7697-4.634,5.8957-6.0127,9.3768-1.4098,3.5598-2.0904,7.2421-2.0434,11.0487.047,3.8066.8588,7.5334,2.4363,11.1798s3.7504,6.7868,6.5196,9.4145c2.7691,2.6303,5.8947,4.6345,9.3783,6.0133,3.5044,1.4326,7.1672,2.1379,10.9853,2.1173,3.8185-.0195,7.5239-.8082,11.1185-2.3633Zm57.5735,3.2751v-52.9649c0-2.4711-2.0032-4.4743-4.4743-4.4743h-3.041v20.4013c0,2.4711-2.0032,4.4743-4.4743,4.4743h-18.8466v-24.8756h-7.6017v57.4393h7.6017v-20.3149c0-2.4711,2.0032-4.4743,4.4743-4.4743h18.8466v24.7892h7.5153Z"/>
    </g>
  </g>
</svg>